<?xml version="1.0" encoding="utf-8"?>
<!-- Generator: Adobe Illustrator 21.1.0, SVG Export Plug-In . SVG Version: 6.00 Build 0)  -->
<svg version="1.1" id="Warstwa_1" xmlns="http://www.w3.org/2000/svg" xmlns:xlink="http://www.w3.org/1999/xlink" x="0px" y="0px"
	 viewBox="0 0 24.7 24.9" style="enable-background:new 0 0 24.7 24.9;" xml:space="preserve">
<style type="text/css">
	.st0{clip-path:url(#SVGID_2_);fill:#000;}
</style>
<g>
	<defs>
		<rect id="SVGID_1_" y="0" width="24.7" height="24.9"/>
	</defs>
	<clipPath id="SVGID_2_">
		<use xlink:href="#SVGID_1_"  style="overflow:visible;"/>
	</clipPath>
	<path class="st0" d="M24.7,9.5c0-0.1-0.1-0.2-0.2-0.3c0,0,0,0,0,0L21.8,7V0.4c0-0.2-0.2-0.4-0.4-0.4H3.4C3.2,0,3,0.2,3,0.4V7
		L0.2,9.2c0,0,0,0,0,0C0.1,9.3,0,9.4,0,9.5v14.9c0,0,0,0.1,0,0.1c0,0,0,0,0,0.1c0,0,0,0,0,0c0,0,0.1,0.1,0.1,0.1c0,0,0,0.1,0.1,0.1
		c0,0,0,0,0,0c0.1,0,0.1,0,0.2,0c0,0,0,0,0,0h23.8c0.1,0,0.1,0,0.2,0c0,0,0,0,0,0c0,0,0,0,0.1-0.1c0,0,0.1-0.1,0.1-0.1c0,0,0,0,0,0
		c0,0,0,0,0-0.1c0,0,0-0.1,0-0.1V9.5z M0.9,10.4l2.3,1.8L9.3,17l-8.4,6.5V10.4z M20.2,20.7L15.4,17l8.1-6.3l0.4-0.3v13.1L20.2,20.7z
		 M23.6,9.5l-1.8,1.4V8.1L23.6,9.5z M3.9,0.9h17v6.3v4.3l-8.5,6.6l-8.5-6.6V7.2V0.9z M3,8.1v2.8l-0.5-0.4l-1.3-1L3,8.1z M1.7,24
		l8.3-6.4l2,1.6c0.2,0.1,0.4,0.1,0.5,0l2-1.6L23,24L1.7,24z"/>
</g>
</svg>
