<?xml version="1.0" encoding="utf-8"?>
<!-- Generator: Adobe Illustrator 21.1.0, SVG Export Plug-In . SVG Version: 6.00 Build 0)  -->
<svg version="1.1" id="Warstwa_1" xmlns="http://www.w3.org/2000/svg" xmlns:xlink="http://www.w3.org/1999/xlink" x="0px" y="0px"
	 viewBox="0 0 28.1 27.7" style="enable-background:new 0 0 28.1 27.7;" xml:space="preserve">
<style type="text/css">
	.st0{clip-path:url(#SVGID_2_);fill:#000;}
</style>
<g>
	<defs>
		<rect id="SVGID_1_" y="0" width="28.1" height="27.7"/>
	</defs>
	<clipPath id="SVGID_2_">
		<use xlink:href="#SVGID_1_"  style="overflow:visible;"/>
	</clipPath>
	<path class="st0" d="M20.4,27.7L20.4,27.7c-2.6,0-7.7-0.8-13.6-6.5c-3.5-3.4-5.7-7.1-6.5-10.9c-0.6-2.8-0.2-4.8-0.1-5.5
		c0-0.5,0.1-0.9,0.3-1.4C1,2.6,2.2,1.2,2.9,0.6C3.9-0.3,4.9-0.2,5.8,1L10.2,7c0.6,0.8,0.4,2-0.3,2.6l-2.2,1.7
		c-0.1,0.1-0.3,0.2-0.5,0.2c-0.2,1.3,1.1,3.4,4,6.2c2.9,2.9,4.7,3,5.3,2.9c0-0.2,0-0.4,0.2-0.6l1.6-2.3c0.3-0.5,0.9-0.8,1.5-0.8
		c0.4,0,0.8,0.1,1.1,0.3l6.2,4.2c0.6,0.4,0.9,0.9,1,1.4c0.1,0.5-0.1,1-0.5,1.6c-0.6,0.7-1.9,1.9-2.8,2.4c-0.4,0.3-0.9,0.4-1.3,0.4
		C23,27.5,21.9,27.7,20.4,27.7 M4.2,1.1c-0.2,0-0.4,0.1-0.7,0.4C3,1.9,1.9,3.2,1.5,4C1.3,4.3,1.3,4.5,1.3,4.8c0,0.1,0,0.1,0,0.2
		c-0.2,0.8-1.7,7.7,6.3,15.4c5.6,5.4,10.5,6.2,12.8,6.2h0c1.5,0,2.5-0.3,2.7-0.4c0.1,0,0.2-0.1,0.3-0.1c0.3,0,0.5,0,0.8-0.2
		c0.7-0.4,2-1.5,2.5-2.1c0.2-0.3,0.4-0.6,0.3-0.8c0-0.2-0.2-0.4-0.6-0.6l-6.2-4.2c-0.4-0.2-0.9-0.2-1.1,0.2l-1.6,2.2
		c0,0.1,0,0.2,0,0.2c0,0.1,0,0.2,0,0.3c0,0.2-0.1,0.3-0.3,0.4c-0.2,0.1-0.6,0.2-1.1,0.2c-1.2,0-3.1-0.6-5.8-3.2
		c-3.5-3.5-4.8-5.9-4.2-7.6c0.1-0.2,0.2-0.3,0.4-0.3c0,0,0.1,0,0.1,0c0.1,0,0.2,0,0.3-0.1l2.2-1.7C9.6,8.5,9.7,8,9.4,7.7L5,1.6
		C4.6,1.1,4.3,1.1,4.2,1.1"/>
</g>
</svg>
