<?xml version="1.0" encoding="utf-8"?>
<!-- Generator: Adobe Illustrator 21.1.0, SVG Export Plug-In . SVG Version: 6.00 Build 0)  -->
<svg version="1.1" id="Warstwa_1" xmlns="http://www.w3.org/2000/svg" xmlns:xlink="http://www.w3.org/1999/xlink" x="0px" y="0px"
	 viewBox="0 0 358.4 41.9" style="enable-background:new 0 0 358.4 41.9;" xml:space="preserve">
<style type="text/css">
	.st0{clip-path:url(#SVGID_2_);}
</style>
<g>
	<defs>
		<rect id="SVGID_1_" y="0" width="358.4" height="41.9"/>
	</defs>
	<clipPath id="SVGID_2_">
		<use xlink:href="#SVGID_1_"  style="overflow:visible;"/>
	</clipPath>
	<path class="st0" d="M267.8,17.2l1.3-2.2c0.2-0.3,0.7-0.3,0.9-0.2c0.1,0.1,2,1.5,3.8,1.5c1.1,0,1.8-0.7,1.8-1.6
		c0-1.1-0.9-2-2.8-2.7c-2.3-0.9-5.2-2.7-5.2-5.9c0-2.7,2.1-5.3,6.2-5.3c2.8,0,4.9,1.4,5.7,2c0.3,0.2,0.3,0.7,0.2,0.9l-1.4,2.1
		c-0.2,0.3-0.7,0.5-0.9,0.3c-0.2-0.1-2.2-1.6-3.8-1.6c-1,0-1.7,0.6-1.7,1.4c0,1,0.8,1.7,2.9,2.6c2.1,0.8,5.4,2.5,5.4,6.1
		c0,2.8-2.4,5.5-6.3,5.5c-3.5,0-5.4-1.4-6-2.1C267.6,17.6,267.6,17.5,267.8,17.2"/>
	<path class="st0" d="M284.9,1.5c0-0.3,0.2-0.5,0.5-0.5h3.2c0.3,0,0.5,0.2,0.5,0.5v6.8h7.7V1.5c0-0.3,0.2-0.5,0.5-0.5h3.2
		c0.3,0,0.5,0.2,0.5,0.5v17.7c0,0.3-0.2,0.5-0.5,0.5h-3.2c-0.3,0-0.5-0.2-0.5-0.5v-7h-7.7v7c0,0.3-0.2,0.5-0.5,0.5h-3.2
		c-0.3,0-0.5-0.2-0.5-0.5V1.5z"/>
	<path class="st0" d="M0.1,2c-0.2-0.8,0.2-1.4,1-1.4h6.8c0.5,0,0.9,0.4,1,0.8l5,19.7h0.2l9-20.5c0.2-0.3,0.5-0.6,1-0.6h1
		c0.5,0,0.9,0.3,1,0.6l9,20.5h0.2l5-19.7c0.1-0.4,0.6-0.8,1-0.8h6.8c0.8,0,1.3,0.6,1,1.4l-11,39.1c-0.1,0.5-0.6,0.8-1,0.8h-0.9
		c-0.4,0-0.8-0.3-1-0.6L24.8,17.5h-0.2L14,41.2c-0.2,0.4-0.6,0.6-1,0.6h-0.9c-0.5,0-0.9-0.3-1-0.8L0.1,2z"/>
	<path class="st0" d="M55.6,1.7c0-0.6,0.5-1.1,1.1-1.1h24.1c0.6,0,1.1,0.5,1.1,1.1V8c0,0.6-0.5,1.1-1.1,1.1H64.7v7.2H78
		c0.6,0,1.1,0.5,1.1,1.1v6.3c0,0.6-0.5,1.1-1.1,1.1H64.7v7.9h16.1c0.6,0,1.1,0.5,1.1,1.1v6.3c0,0.6-0.5,1.1-1.1,1.1H56.7
		c-0.6,0-1.1-0.5-1.1-1.1V1.7z"/>
	<path class="st0" d="M89.6,1c0-0.6,0.5-1,1.1-1h1.5l23.2,22.3h0.1V1.7c0-0.6,0.5-1.1,1.1-1.1h7c0.6,0,1.1,0.5,1.1,1.1v39.2
		c0,0.6-0.5,1-1.1,1h-0.9c-0.2,0-0.6-0.2-0.8-0.3l-23-23.1h-0.1v21.7c0,0.6-0.5,1.1-1.1,1.1h-6.9c-0.6,0-1.1-0.5-1.1-1.1L89.6,1z"/>
	<path class="st0" d="M134.7,1.7c0-0.6,0.5-1.1,1.1-1.1h7c0.6,0,1.1,0.5,1.1,1.1v38.5c0,0.6-0.5,1.1-1.1,1.1h-7
		c-0.6,0-1.1-0.5-1.1-1.1V1.7z"/>
	<path class="st0" d="M171.9,0.1c4.9,0,10.2,2,14.2,5.5c0.5,0.4,0.6,1.1,0.1,1.6l-4.6,4.9c-0.5,0.4-1.1,0.4-1.6,0.1
		c-2.2-2-4.8-2.8-7.6-2.8c-6.3,0-11.5,5.4-11.5,11.8c0,6.3,5.2,11.6,11.5,11.6c1.7,0,3.4-0.2,5.2-0.9v-3.4h-3.7
		c-0.6,0-1.1-0.5-1.1-1v-5.8c0-0.6,0.5-1.1,1.1-1.1h11.7c0.6,0,1,0.5,1,1.1l0.1,15.7c0,0.3-0.2,0.8-0.5,0.9c0,0-6,3.8-14.4,3.8
		c-11.6,0-20.9-9.2-20.9-20.8C151,9.4,160.3,0.1,171.9,0.1"/>
	<path class="st0" d="M194.7,1.7c0-0.6,0.5-1.1,1.1-1.1h24.1c0.6,0,1.1,0.5,1.1,1.1V8c0,0.6-0.5,1.1-1.1,1.1h-16.1v7.2h13.3
		c0.6,0,1.1,0.5,1.1,1.1v6.3c0,0.6-0.5,1.1-1.1,1.1h-13.3v7.9h16.1c0.6,0,1.1,0.5,1.1,1.1v6.3c0,0.6-0.5,1.1-1.1,1.1h-24.1
		c-0.6,0-1.1-0.5-1.1-1.1V1.7z"/>
	<path class="st0" d="M228.8,1.7c0-0.6,0.5-1.1,1.1-1.1h17.4c7,0,12.7,5.6,12.7,12.6c0,5.4-3.5,9.7-8.6,11.7l8,14.8
		c0.4,0.8,0,1.7-1,1.7h-7.7c-0.5,0-0.8-0.3-0.9-0.5L242,25.4h-4v14.8c0,0.6-0.5,1.1-1.1,1.1h-6.9c-0.6,0-1.1-0.5-1.1-1.1V1.7z
		 M246.5,18c2.4,0,4.4-2.2,4.4-4.7c0-2.4-2-4.4-4.4-4.4h-8.6V18H246.5z"/>
	<path class="st0" d="M356.8,1.7c0.8-0.3,1.5,0.1,1.5,1v7.7c0,0.5-0.4,0.9-0.6,1l-21.2,9.6v0.3l21.2,9.6c0.3,0.1,0.6,0.5,0.6,1v7.7
		c0,0.9-0.8,1.3-1.5,1l-39.2-18.3c-0.4-0.2-0.6-0.5-0.6-1v-0.6c0-0.5,0.3-0.8,0.6-1L356.8,1.7z"/>
</g>
</svg>
